<?xml version="1.0" encoding="UTF-8"?>
<svg xmlns="http://www.w3.org/2000/svg" viewBox="0 0 640 640" width="640" height="640">
  <defs>
    <linearGradient id="furBody" x1="0" y1="0" x2="0" y2="1"><stop offset="0" stop-color="#f7f8fb"/><stop offset=".55" stop-color="#e3e7ee"/><stop offset="1" stop-color="#cdd4dd"/></linearGradient>
    <linearGradient id="furHead" x1="0" y1="0" x2="0" y2="1"><stop offset="0" stop-color="#ffffff"/><stop offset=".62" stop-color="#eef1f5"/><stop offset="1" stop-color="#d9dee7"/></linearGradient>
    <linearGradient id="belly" x1="0" y1="0" x2="0" y2="1"><stop offset="0" stop-color="#ffffff"/><stop offset="1" stop-color="#f7f4ef"/></linearGradient>
    <linearGradient id="collar" x1="0" y1="0" x2="0" y2="1"><stop offset="0" stop-color="#ff8c42"/><stop offset="1" stop-color="#ff6b35"/></linearGradient>
    <linearGradient id="bell" x1="0" y1="0" x2="0" y2="1"><stop offset="0" stop-color="#ffe899"/><stop offset="1" stop-color="#ffd166"/></linearGradient>
    <radialGradient id="eye" cx="50%" cy="38%" r="60%"><stop offset="0" stop-color="#9fe8f5"/><stop offset=".58" stop-color="#5fc9e0"/><stop offset="1" stop-color="#3da8c2"/></radialGradient>
    <radialGradient id="cheek" cx="50%" cy="50%" r="50%"><stop offset="0" stop-color="#ffa500" stop-opacity=".55"/><stop offset="1" stop-color="#ffa500" stop-opacity="0"/></radialGradient>
    <filter id="softShadow" x="-30%" y="-30%" width="160%" height="160%"><feDropShadow dx="0" dy="14" stdDeviation="12" flood-color="#2663eb" flood-opacity=".12"/></filter>
  </defs>
  <rect width="640" height="640" fill="none"/>
  <g transform="translate(320 516) scale(1.000 .82)"><ellipse cx="0" cy="0" rx="118" ry="20" fill="#2563eb" opacity=".11"/></g>
  <g filter="url(#softShadow)" transform="translate(320 324) translate(0 0.60) rotate(2.34) scale(1.000 1.000) translate(-100 -110) scale(1.86)">
    <path d="M132 190 Q168 190 178 164 Q188 138 178 114 Q172 98 156 96 Q148 95 144 101 Q158 102 166 118 Q172 134 164 152 Q156 170 138 184 Q135 187 132 190 Z" fill="url(#furBody)" stroke="#B8BEC8" stroke-width="2.5" stroke-linejoin="round"/>
    <ellipse cx="70" cy="178" rx="19" ry="14" fill="url(#furBody)" stroke="#C3C9D1" stroke-width="2"/>
    <ellipse cx="130" cy="178" rx="19" ry="14" fill="url(#furBody)" stroke="#C3C9D1" stroke-width="2"/>
    <ellipse cx="100" cy="145" rx="55" ry="48" fill="url(#furBody)" stroke="#B8BEC8" stroke-width="2.5"/>
    <ellipse cx="100" cy="158" rx="33" ry="31" fill="url(#belly)"/>
    <g transform="rotate(-63.50 65 148)">
      <path d="M66 150 Q33 124 28 92 Q23 64 39 52 Q51 48 56 59 Q46 72 49 94 Q54 122 79 149 Z" fill="url(#furBody)" stroke="#B8BEC8" stroke-width="2.4" stroke-linecap="round" stroke-linejoin="round"/>
      <g transform="rotate(-17.12 36 55)">
        <ellipse cx="36" cy="55" rx="17" ry="14" fill="url(#belly)" stroke="#B8BEC8" stroke-width="2.2"/>
        <path d="M24 53 Q29 45 34 53 M36 49 Q40 42 45 51 M47 56 Q54 51 56 60" stroke="#B8BEC8" stroke-width="2.1" stroke-linecap="round" fill="none"/>
      </g>
      <path d="M31 48 Q24 55 27 65 M23 42 Q14 55 18 70" stroke="#1CB0F6" stroke-width="2.4" stroke-linecap="round" fill="none" opacity="0.82"/>
    </g>
    <g transform="rotate(-8.00 134 148)">
      <path d="M134 150 Q163 132 169 106 Q175 82 162 70 Q150 66 145 77 Q154 89 151 108 Q147 130 121 149 Z" fill="url(#furBody)" stroke="#B8BEC8" stroke-width="2.4" stroke-linecap="round" stroke-linejoin="round"/>
      <ellipse cx="164" cy="74" rx="15" ry="13" fill="url(#belly)" stroke="#B8BEC8" stroke-width="2.1"/>
    </g>
    <ellipse cx="78" cy="181" rx="18" ry="15" fill="url(#belly)" stroke="#C3C9D1" stroke-width="2"/>
    <ellipse cx="122" cy="181" rx="18" ry="15" fill="url(#belly)" stroke="#C3C9D1" stroke-width="2"/>
    <path d="M46 58 Q22 18 60 4 Q92 8 86 50 Q66 46 46 58 Z" fill="url(#furHead)" stroke="#B8BEC8" stroke-width="2.5" stroke-linejoin="round"/>
    <path d="M54 48 Q40 22 62 10 Q80 16 76 44 Q64 40 54 48 Z" fill="#ffd9c8"/>
    <path d="M154 58 Q178 18 140 4 Q108 8 114 50 Q134 46 154 58 Z" fill="url(#furHead)" stroke="#B8BEC8" stroke-width="2.5" stroke-linejoin="round"/>
    <path d="M146 48 Q160 22 138 10 Q120 16 124 44 Q136 40 146 48 Z" fill="#ffd9c8"/>
    <circle cx="100" cy="96" r="62" fill="url(#furHead)" stroke="#B8BEC8" stroke-width="2.5"/>
    <path d="M84 48 Q89 39 94 48 M106 48 Q111 39 116 48 M97 39 L100 54 L103 39" stroke="#C9CDD4" stroke-width="2.5" stroke-linecap="round" stroke-linejoin="round" fill="none" opacity=".7"/>
    <ellipse cx="58" cy="109" rx="14" ry="10" fill="url(#cheek)"/>
    <ellipse cx="142" cy="109" rx="14" ry="10" fill="url(#cheek)"/>
    
    <path d="M62 94 Q76 80 90 94" fill="none" stroke="#3a3f4b" stroke-width="7" stroke-linecap="round"/>
    <path d="M110 94 Q124 80 138 94" fill="none" stroke="#3a3f4b" stroke-width="7" stroke-linecap="round"/>
    <path d="M93 114 Q100 110 107 114 Q103 120 100 121 Q97 120 93 114 Z" fill="#FF9E92"/>
    <path d="M82 119 Q100 140.09472636309528 118 119 Q109 135.64083979988095 100 134.21894527261907 Q91 135.64083979988095 82 119 Z" fill="#C76B5D"/>
    <path d="M88 123 Q100 133.27368159077383 112 123" stroke="#fff" stroke-width="2.1" stroke-linecap="round" fill="none" opacity=".82"/>
    <path d="M30 98 Q47 96 58 101 M30 109 Q47 109 58 109" stroke="#B8BEC8" stroke-width="2.5" stroke-linecap="round" fill="none"/>
    <path d="M170 98 Q153 96 142 101 M170 109 Q153 109 142 109" stroke="#B8BEC8" stroke-width="2.5" stroke-linecap="round" fill="none"/>
    <path d="M70 138 Q100 148 130 138 L128 145 Q100 154 72 145 Z" fill="url(#collar)" stroke="#E8763D" stroke-width="1.5" opacity=".95"/>
    <path d="M75 141 Q100 150 125 141" stroke="#fff" stroke-width="1.5" stroke-linecap="round" opacity=".8"/>
    <circle cx="100" cy="149" r="10" fill="url(#bell)" stroke="#E8AE3D" stroke-width="2"/>
    <path d="M94 149 L106 149 M100 145 L100 153" stroke="#E8AE3D" stroke-width="1.8" stroke-linecap="round"/>
    <g opacity="0.82">
      <path d="M53 75 L56 69 L59 75 L65 78 L59 81 L56 87 L53 81 L47 78 Z" fill="#FFD700"/>
      <path d="M143 75 L146 69 L149 75 L155 78 L149 81 L146 87 L143 81 L137 78 Z" fill="#1CB0F6" opacity=".82"/>
    </g>
  </g>
</svg>